<?xml version="1.0" encoding="UTF-8" standalone="no"?>
<!-- Created with Inkscape (http://www.inkscape.org/) -->

<svg
   xmlns:dc="http://purl.org/dc/elements/1.1/"
   xmlns:cc="http://creativecommons.org/ns#"
   xmlns:rdf="http://www.w3.org/1999/02/22-rdf-syntax-ns#"
   xmlns:svg="http://www.w3.org/2000/svg"
   xmlns="http://www.w3.org/2000/svg"
   xmlns:sodipodi="http://sodipodi.sourceforge.net/DTD/sodipodi-0.dtd"
   xmlns:inkscape="http://www.inkscape.org/namespaces/inkscape"
   width="20cm"
   height="15cm"
   viewBox="0 0 708.66142 531.49605"
   id="svg5869"
   version="1.1"
   inkscape:version="0.91 r13725"
   sodipodi:docname="drawing.svg">
  <defs
     id="defs5871" />
  <sodipodi:namedview
     id="base"
     pagecolor="#ffffff"
     bordercolor="#666666"
     borderopacity="1.0"
     inkscape:pageopacity="0.0"
     inkscape:pageshadow="2"
     inkscape:zoom="0.5"
     inkscape:cx="354.33071"
     inkscape:cy="265.74803"
     inkscape:document-units="cm"
     inkscape:current-layer="layer1"
     showgrid="false"
     units="cm"
     inkscape:window-width="1366"
     inkscape:window-height="715"
     inkscape:window-x="0"
     inkscape:window-y="0"
     inkscape:window-maximized="1" />
  <metadata
     id="metadata5874">
    <rdf:RDF>
      <cc:Work
         rdf:about="">
        <dc:format>image/svg+xml</dc:format>
        <dc:type
           rdf:resource="http://purl.org/dc/dcmitype/StillImage" />
        <dc:title />
      </cc:Work>
    </rdf:RDF>
  </metadata>
  <g
     inkscape:label="Layer 1"
     inkscape:groupmode="layer"
     id="layer1"
     transform="translate(0,-520.86617)">
    <g
       id="g6427"
       transform="matrix(1.0334589,0,0,1.0333416,201.93777,-136.07539)">
      <path
         transform="matrix(-0.26538508,-0.9641425,0.96414086,-0.26539102,0,0)"
         d="m -804.0056,-83.234238 a 99.215469,99.214455 0 0 1 -76.99386,96.693942 99.215469,99.214455 0 0 1 -111.48299,-53.380237 99.215469,99.214455 0 0 1 27.05546,-120.605427 99.215469,99.214455 0 0 1 123.60238,-0.64453 l -61.39646,77.936252 z"
         sodipodi:end="5.3796279"
         sodipodi:start="0"
         sodipodi:ry="99.214455"
         sodipodi:rx="99.215469"
         sodipodi:cy="-83.234238"
         sodipodi:cx="-903.22107"
         sodipodi:type="arc"
         id="path5877"
         style="fill:#000000;fill-opacity:1;fill-rule:evenodd;stroke:#000000;stroke-width:14.18266582;stroke-miterlimit:4;stroke-dasharray:none;stroke-opacity:1" />
      <path
         transform="matrix(-0.27788079,-0.96061557,0.9606037,-0.2779218,0,0)"
         d="m -759.02982,-100.07023 a 143.14333,143.13367 0 0 1 -110.39391,144.478444 143.14333,143.13367 0 0 1 -163.09207,-80.397418 143.14333,143.13367 0 0 1 47.38281,-175.540196 143.14333,143.13367 0 0 1 181.39859,12.577"
         sodipodi:open="true"
         sodipodi:end="5.4698153"
         sodipodi:start="6.247409"
         sodipodi:ry="143.13367"
         sodipodi:rx="143.14333"
         sodipodi:cy="-94.950523"
         sodipodi:cx="-902.08154"
         sodipodi:type="arc"
         id="path6421"
         style="fill:none;fill-opacity:1;fill-rule:evenodd;stroke:#000000;stroke-width:32.65429306;stroke-miterlimit:4;stroke-dasharray:none;stroke-opacity:1" />
    </g>
    <path
       style="fill:none;fill-opacity:1;fill-rule:evenodd;stroke:#000000;stroke-width:39.60122681;stroke-miterlimit:4;stroke-dasharray:none;stroke-opacity:1"
       d="M 342.35653,611.6905 C 189.85814,619.30155 78.129668,705.73474 20.566587,790.12262 78.213807,882.34838 210.39449,960.89371 365.73969,961.54736 522.27485,955.2038 637.25641,862.35464 688.09483,783.09762 632.34976,699.72213 502.09445,612.43329 342.35653,611.6905 Z"
       id="path6433"
       inkscape:connector-curvature="0"
       sodipodi:nodetypes="ccccc" />
  </g>
</svg>
